<!-- Generated by IcoMoon.io -->
<svg version="1.1" xmlns="http://www.w3.org/2000/svg" width="1479" height="1024" viewBox="0 0 1479 1024">
<title></title>
<g id="icomoon-ignore">
</g>
<path d="M685.568 67.072c0 36.352 0 72.704 0 109.568 70.656 39.424 133.632 89.088 177.152 146.432 0 174.592 0 349.184 0 523.776 167.424 92.672 379.904 125.952 480.256 59.392 0-210.944 0-422.4 0-633.344-143.36 95.232-512.512-12.288-657.408-205.824z"></path>
<path d="M148.992 222.72h93.696v103.424h-93.696v-103.424z"></path>
<path d="M230.912 79.36h93.696v103.424h-93.696v-103.424z"></path>
<path d="M100.352 74.24h71.168v78.336h-71.168v-78.336z"></path>
<path d="M685.568 700.416c0-174.592 0-349.184 0-523.776-103.936-57.344-225.28-92.16-326.144-94.208v131.584h-79.36v142.336h-75.264c0 131.584 0 263.168 0 394.24 143.36-95.232 512 12.288 657.408 205.312 0-36.352 0-72.704 0-109.568-70.656-38.4-133.632-88.064-176.64-145.92z"></path>
</svg>
