<?xml version="1.0" encoding="utf-8"?>
<!-- Generator: Adobe Illustrator 22.1.0, SVG Export Plug-In . SVG Version: 6.00 Build 0)  -->
<svg version="1.1" id="Layer_1" focusable="false" xmlns="http://www.w3.org/2000/svg" xmlns:xlink="http://www.w3.org/1999/xlink"
	 x="0px" y="0px" viewBox="0 0 576 576" style="enable-background:new 0 0 576 576;" xml:space="preserve">
<g>
	<g>
		<g>
			<g>
				<path d="M471.4,360.7v27.8c0,7.7-6.2,13.9-13.9,13.9H346.2c-7.7,0-13.9-6.2-13.9-13.9v-27.8c0-7.7,6.2-13.9,13.9-13.9h17
					L343,291.1H210.3L190,346.7h17c7.7,0,13.9,6.2,13.9,13.9v27.8c0,7.7-6.2,13.9-13.9,13.9H95.7c-7.7,0-13.9-6.2-13.9-13.9v-27.8
					c0-7.7,6.2-13.9,13.9-13.9h20.4L229.8,31.6c3.5-10.4,15.3-18.9,26.3-18.9h0h41h0c11,0,22.8,8.5,26.3,18.9l113.7,315.1h20.4
					C465.2,346.7,471.4,353,471.4,360.7z M317.6,221.5l-41-112.6l-41,112.6H317.6z"/>
			</g>
		</g>
	</g>
</g>
<g>
	<path d="M88.9,415.7H136l18.2,84.1l18-84.1h47.1V554h-29.3V448.6L167.3,554h-26.5l-22.6-105.4V554H88.9V415.7z"/>
	<path d="M313.4,531.2h-40.7l-5.6,22.8h-36.6L274,415.7h39.1L356.7,554h-37.5L313.4,531.2z M305.9,501.3l-12.8-49.7l-12.7,49.7
		H305.9z"/>
	<path d="M360.1,415.7h39.5l20.5,42.5l20-42.5h39.1l-36.1,67l39.5,71.3h-40.2l-22.9-44.4L396.5,554h-40l40-72.1L360.1,415.7z"/>
</g>
</svg>
