<?xml version="1.0" encoding="utf-8"?>
<!-- Generator: Adobe Illustrator 22.1.0, SVG Export Plug-In . SVG Version: 6.00 Build 0)  -->
<svg version="1.1" id="Layer_1" xmlns="http://www.w3.org/2000/svg" xmlns:xlink="http://www.w3.org/1999/xlink" x="0px" y="0px"
	 viewBox="0 0 18 18" style="enable-background:new 0 0 18 18;" xml:space="preserve">
<style type="text/css">
	.st0{fill:#231F20;}
</style>
<g>
	<polygon class="st0" points="6.8,14 3.8,11.5 3.8,13.5 0.1,13.5 0.1,14.6 3.8,14.6 3.8,16.5 	"/>
	
		<rect x="10.9" y="4.2" transform="matrix(-1.458773e-10 1 -1 -1.458773e-10 19.8456 -3.3266)" class="st0" width="1.3" height="8.2"/>
	
		<rect x="12.1" y="-3.2" transform="matrix(-1.600109e-10 1 -1 -1.600109e-10 14.6943 -10.7256)" class="st0" width="1.3" height="10.4"/>
	
		<rect x="11.8" y="0.3" transform="matrix(-1.713387e-10 1 -1 -1.713387e-10 17.6987 -7.1601)" class="st0" width="1.3" height="9.9"/>
	<path class="st0" d="M17.3,16.7H7.6v-5.5h9.6V16.7z M8.8,15.5h7.4v-3.2H8.8V15.5z"/>
</g>
</svg>
