<?xml version="1.0" encoding="utf-8"?>
<!-- Generator: Adobe Illustrator 22.1.0, SVG Export Plug-In . SVG Version: 6.00 Build 0)  -->
<svg version="1.1" id="Layer_1" focusable="false" xmlns="http://www.w3.org/2000/svg" xmlns:xlink="http://www.w3.org/1999/xlink"
	 x="0px" y="0px" viewBox="0 0 576 576" style="enable-background:new 0 0 576 576;" xml:space="preserve">
<g>
	<g>
		<g>
			<path d="M454,350.6v25.3c0,7-5.7,12.6-12.6,12.6H340.3c-7,0-12.6-5.7-12.6-12.6v-25.3c0-7,5.7-12.6,12.6-12.6h15.5l-18.4-50.5
				H216.9L198.5,338H214c7,0,12.6,5.7,12.6,12.6v25.3c0,7-5.7,12.6-12.6,12.6H112.9c-7,0-12.6-5.7-12.6-12.6v-25.3
				c0-7,5.7-12.6,12.6-12.6h18.5L234.6,51.9c3.2-9.5,13.9-17.1,23.9-17.1h0h37.2h0c10,0,20.7,7.7,23.9,17.1L422.9,338h18.5
				C448.4,338,454,343.6,454,350.6z M314.4,224.3L277.1,122l-37.2,102.2H314.4z"/>
		</g>
	</g>
	<g>
		<path d="M157.9,529l47.5-111.5h12.1v129.3H204v-96l-41.3,96h-10.1L111,451.5l0.3,95.3H97.8V417.5H110L157.9,529z"/>
		<path d="M360.5,546.7h-14.9l-13.9-33.3h-66.3l-13.9,33.3h-15.3l55.5-129.3h12.8L360.5,546.7z M298.4,434.8L270.6,501h55.9
			L298.4,434.8z"/>
		<path d="M476.1,417.5l-46.2,63.4l48.2,65.9h-17.4l-39.2-54.9l-39.2,54.9H365l48.2-66.2l-45.8-63h17.4l36.8,52.1l37.1-52.1H476.1z"
			/>
	</g>
</g>
</svg>
