<?xml version="1.0" encoding="utf-8"?>
<!-- Generator: Adobe Illustrator 22.1.0, SVG Export Plug-In . SVG Version: 6.00 Build 0)  -->
<svg version="1.1" id="Layer_1" xmlns="http://www.w3.org/2000/svg" xmlns:xlink="http://www.w3.org/1999/xlink" x="0px" y="0px"
	 viewBox="0 0 18 18" style="enable-background:new 0 0 18 18;" xml:space="preserve">
<style type="text/css">
	.st0{fill:#231F20;}
</style>
<g>
	<polygon class="st0" points="17.6,13.8 14.5,11.2 14.5,13.2 3.5,13.2 3.5,11.2 0.4,13.8 3.5,16.5 3.5,14.4 14.5,14.4 14.5,16.5 	
		"/>
	<path class="st0" d="M12.8,1.5h-1.2L8.4,9.7H10l0.8-2.7h2.8l0.8,2.7H16L12.8,1.5z M11.9,3.1l0.5,0l0.9,2.7h-2.2L11.9,3.1z"/>
	<g>
		<path class="st0" d="M7.2,1.5h2.6v0.9H9.1L6.5,9.7H5L2.4,2.4H1.7V1.5h2.6v0.9H3.6l2.1,6.3L8,2.4H7.2V1.5z"/>
	</g>
</g>
</svg>
