<?xml version="1.0" encoding="utf-8"?>
<!-- Generator: Adobe Illustrator 22.1.0, SVG Export Plug-In . SVG Version: 6.00 Build 0)  -->
<svg version="1.1" id="Layer_1" focusable="false" xmlns="http://www.w3.org/2000/svg" xmlns:xlink="http://www.w3.org/1999/xlink"
	 x="0px" y="0px" viewBox="0 0 576 576" style="enable-background:new 0 0 576 576;" xml:space="preserve">
<path d="M518,177.5H58c-25.4,0-46,20.6-46,46v276c0,25.4,20.6,46,46,46h460c25.4,0,46-20.6,46-46v-276
	C564,198.1,543.4,177.5,518,177.5z M525.7,499.5c0,4.2-3.4,7.7-7.7,7.7H58c-4.2,0-7.7-3.4-7.7-7.7v-276c0-4.2,3.4-7.7,7.7-7.7h460
	c4.2,0,7.7,3.4,7.7,7.7V499.5z M174.9,374.9v-26.8c0-6.4-5.1-11.5-11.5-11.5h-26.8c-6.4,0-11.5,5.1-11.5,11.5v26.8
	c0,6.4,5.1,11.5,11.5,11.5h26.8C169.8,386.4,174.9,381.3,174.9,374.9z M266.9,374.9v-26.8c0-6.4-5.1-11.5-11.5-11.5h-26.8
	c-6.4,0-11.5,5.1-11.5,11.5v26.8c0,6.4,5.1,11.5,11.5,11.5h26.8C261.8,386.4,266.9,381.3,266.9,374.9z M358.9,374.9v-26.8
	c0-6.4-5.1-11.5-11.5-11.5h-26.8c-6.4,0-11.5,5.1-11.5,11.5v26.8c0,6.4,5.1,11.5,11.5,11.5h26.8
	C353.8,386.4,358.9,381.3,358.9,374.9z M450.9,374.9v-26.8c0-6.4-5.1-11.5-11.5-11.5h-26.8c-6.4,0-11.5,5.1-11.5,11.5v26.8
	c0,6.4,5.1,11.5,11.5,11.5h26.8C445.8,386.4,450.9,381.3,450.9,374.9z M128.9,453.5v-26.8c0-6.4-5.1-11.5-11.5-11.5H90.6
	c-6.4,0-11.5,5.1-11.5,11.5v26.8c0,6.4,5.1,11.5,11.5,11.5h26.8C123.8,465,128.9,459.9,128.9,453.5z M496.9,453.5v-26.8
	c0-6.4-5.1-11.5-11.5-11.5h-26.8c-6.4,0-11.5,5.1-11.5,11.5v26.8c0,6.4,5.1,11.5,11.5,11.5h26.8C491.8,465,496.9,459.9,496.9,453.5z
	 M128.9,296.3v-26.8c0-6.4-5.1-11.5-11.5-11.5H90.6c-6.4,0-11.5,5.1-11.5,11.5v26.8c0,6.4,5.1,11.5,11.5,11.5h26.8
	C123.8,307.8,128.9,302.7,128.9,296.3z M220.9,296.3v-26.8c0-6.4-5.1-11.5-11.5-11.5h-26.8c-6.4,0-11.5,5.1-11.5,11.5v26.8
	c0,6.4,5.1,11.5,11.5,11.5h26.8C215.8,307.8,220.9,302.7,220.9,296.3z M312.9,296.3v-26.8c0-6.4-5.1-11.5-11.5-11.5h-26.8
	c-6.4,0-11.5,5.1-11.5,11.5v26.8c0,6.4,5.1,11.5,11.5,11.5h26.8C307.8,307.8,312.9,302.7,312.9,296.3z M404.9,296.3v-26.8
	c0-6.4-5.1-11.5-11.5-11.5h-26.8c-6.4,0-11.5,5.1-11.5,11.5v26.8c0,6.4,5.1,11.5,11.5,11.5h26.8
	C399.8,307.8,404.9,302.7,404.9,296.3z M496.9,296.3v-26.8c0-6.4-5.1-11.5-11.5-11.5h-26.8c-6.4,0-11.5,5.1-11.5,11.5v26.8
	c0,6.4,5.1,11.5,11.5,11.5h26.8C491.8,307.8,496.9,302.7,496.9,296.3z M403,447.8v-15.3c0-6.4-5.1-11.5-11.5-11.5h-207
	c-6.4,0-11.5,5.1-11.5,11.5v15.3c0,6.4,5.1,11.5,11.5,11.5h207C397.9,459.2,403,454.1,403,447.8z"/>
<g>
	<path d="M208.7,159.3h-16.1l-14.9-35.1h-71.4l-14.9,35.1H75l59.8-136.4h13.8L208.7,159.3z M141.8,41.2l-29.9,69.9h60.2L141.8,41.2z
		"/>
	<path d="M285.7,159.3h-56.8V22.9h54.5c28,0,44.1,13.1,44.1,35.9c0,14.6-7.8,25.4-21.3,30.6c15.3,4.1,24.7,16.1,24.7,32.9
		C330.9,145.8,314.4,159.3,285.7,159.3z M244.6,36v47.4h36.6c20.5,0,31-8.2,31-23.9c0-15.7-10.5-23.5-31-23.5H244.6z M284.2,96.9
		h-39.6v49.3h39.6c21.3,0,31-7.8,31-24.3C315.2,105.1,305.1,96.9,284.2,96.9z"/>
	<path d="M422.8,21.4c18.7,0,34.7,6,46.3,17.2l-6,12.3c-13.1-11.6-25-15.7-40.4-15.7c-29.9,0-47.1,19.8-47.1,55.7
		s17.2,56.4,47.1,56.4c15.3,0,27.3-4.5,40.4-15.7l6,12c-11.6,11.6-27.6,17.2-46.3,17.2c-38.9,0-63.1-26.9-63.1-69.9
		C359.7,48.3,383.9,21.4,422.8,21.4z"/>
</g>
</svg>
