<?xml version="1.0" encoding="utf-8"?>
<!-- Generator: Adobe Illustrator 22.1.0, SVG Export Plug-In . SVG Version: 6.00 Build 0)  -->
<svg version="1.1" id="Layer_1" focusable="false" xmlns="http://www.w3.org/2000/svg" xmlns:xlink="http://www.w3.org/1999/xlink"
	 x="0px" y="0px" viewBox="0 0 576 576" style="enable-background:new 0 0 576 576;" xml:space="preserve">
<g>
	<path d="M518,222H58c-25.4,0-46,18.1-46,40.5v243c0,22.4,20.6,40.5,46,40.5h460c25.4,0,46-18.1,46-40.5v-243
		C564,240.1,543.4,222,518,222z M525.7,505.5c0,3.7-3.4,6.8-7.7,6.8H58c-4.2,0-7.7-3-7.7-6.8v-243c0-3.7,3.4-6.8,7.7-6.8h460
		c4.2,0,7.7,3,7.7,6.8V505.5z M174.9,395.8v-23.6c0-5.6-5.1-10.1-11.5-10.1h-26.8c-6.4,0-11.5,4.5-11.5,10.1v23.6
		c0,5.6,5.1,10.1,11.5,10.1h26.8C169.8,405.9,174.9,401.4,174.9,395.8z M266.9,395.8v-23.6c0-5.6-5.1-10.1-11.5-10.1h-26.8
		c-6.4,0-11.5,4.5-11.5,10.1v23.6c0,5.6,5.1,10.1,11.5,10.1h26.8C261.8,405.9,266.9,401.4,266.9,395.8z M358.9,395.8v-23.6
		c0-5.6-5.1-10.1-11.5-10.1h-26.8c-6.4,0-11.5,4.5-11.5,10.1v23.6c0,5.6,5.1,10.1,11.5,10.1h26.8
		C353.8,405.9,358.9,401.4,358.9,395.8z M450.9,395.8v-23.6c0-5.6-5.1-10.1-11.5-10.1h-26.8c-6.4,0-11.5,4.5-11.5,10.1v23.6
		c0,5.6,5.1,10.1,11.5,10.1h26.8C445.8,405.9,450.9,401.4,450.9,395.8z M128.9,465v-23.6c0-5.6-5.1-10.1-11.5-10.1H90.6
		c-6.4,0-11.5,4.5-11.5,10.1V465c0,5.6,5.1,10.1,11.5,10.1h26.8C123.8,475.1,128.9,470.6,128.9,465z M496.9,465v-23.6
		c0-5.6-5.1-10.1-11.5-10.1h-26.8c-6.4,0-11.5,4.5-11.5,10.1V465c0,5.6,5.1,10.1,11.5,10.1h26.8C491.8,475.1,496.9,470.6,496.9,465z
		 M128.9,326.6V303c0-5.6-5.1-10.1-11.5-10.1H90.6c-6.4,0-11.5,4.5-11.5,10.1v23.6c0,5.6,5.1,10.1,11.5,10.1h26.8
		C123.8,336.7,128.9,332.2,128.9,326.6z M220.9,326.6V303c0-5.6-5.1-10.1-11.5-10.1h-26.8c-6.4,0-11.5,4.5-11.5,10.1v23.6
		c0,5.6,5.1,10.1,11.5,10.1h26.8C215.8,336.7,220.9,332.2,220.9,326.6z M312.9,326.6V303c0-5.6-5.1-10.1-11.5-10.1h-26.8
		c-6.4,0-11.5,4.5-11.5,10.1v23.6c0,5.6,5.1,10.1,11.5,10.1h26.8C307.8,336.7,312.9,332.2,312.9,326.6z M404.9,326.6V303
		c0-5.6-5.1-10.1-11.5-10.1h-26.8c-6.4,0-11.5,4.5-11.5,10.1v23.6c0,5.6,5.1,10.1,11.5,10.1h26.8
		C399.8,336.7,404.9,332.2,404.9,326.6z M496.9,326.6V303c0-5.6-5.1-10.1-11.5-10.1h-26.8c-6.4,0-11.5,4.5-11.5,10.1v23.6
		c0,5.6,5.1,10.1,11.5,10.1h26.8C491.8,336.7,496.9,332.2,496.9,326.6z M403,460v-13.5c0-5.6-5.1-10.1-11.5-10.1h-207
		c-6.4,0-11.5,4.5-11.5,10.1V460c0,5.6,5.1,10.1,11.5,10.1h207C397.9,470,403,465.5,403,460z"/>
</g>
<g>
	<path d="M136.2,172.2H78.9l-8,27H19.3L80.8,35.7h55.1l61.4,163.5h-52.9L136.2,172.2z M125.8,136.8l-18-58.8l-17.9,58.8H125.8z"/>
	<path d="M213.5,35.7h94.6c15.8,0,27.9,3.9,36.3,11.7c8.4,7.8,12.7,17.5,12.7,29c0,9.7-3,18-9,24.9c-4,4.6-9.9,8.3-17.6,10.9
		c11.7,2.8,20.4,7.7,25.9,14.6c5.5,6.9,8.3,15.5,8.3,25.9c0,8.5-2,16.1-5.9,22.9c-3.9,6.8-9.3,12.1-16.2,16.1
		c-4.2,2.5-10.6,4.2-19.2,5.4c-11.4,1.5-18.9,2.2-22.6,2.2h-87.2V35.7z M264.5,99.8h22c7.9,0,13.4-1.4,16.5-4.1
		c3.1-2.7,4.6-6.6,4.6-11.8c0-4.8-1.5-8.5-4.6-11.2c-3.1-2.7-8.5-4-16.1-4h-22.3V99.8z M264.5,164h25.8c8.7,0,14.8-1.5,18.4-4.6
		c3.6-3.1,5.4-7.2,5.4-12.4c0-4.8-1.8-8.7-5.3-11.7c-3.5-2.9-9.7-4.4-18.6-4.4h-25.7V164z"/>
	<path d="M499.9,132.3l44.3,13.4c-3,12.4-7.7,22.8-14.1,31.1c-6.4,8.3-14.3,14.6-23.8,18.8c-9.5,4.2-21.5,6.4-36.2,6.4
		c-17.8,0-32.3-2.6-43.6-7.7c-11.3-5.2-21-14.2-29.2-27.2c-8.2-13-12.3-29.6-12.3-49.9c0-27,7.2-47.8,21.6-62.4s34.7-21.8,61.1-21.8
		c20.6,0,36.8,4.2,48.6,12.5c11.8,8.3,20.5,21.1,26.3,38.4L498,93.7c-1.6-5-3.2-8.6-4.9-10.9c-2.8-3.9-6.3-6.8-10.4-8.9
		c-4.1-2.1-8.7-3.1-13.7-3.1c-11.5,0-20.2,4.6-26.3,13.8c-4.6,6.8-6.9,17.6-6.9,32.2c0,18.1,2.8,30.5,8.3,37.3
		c5.5,6.7,13.2,10.1,23.2,10.1c9.7,0,17-2.7,21.9-8.1C494.1,150.5,497.7,142.6,499.9,132.3z"/>
</g>
</svg>
