<?xml version="1.0" encoding="utf-8"?>
<!-- Generator: Adobe Illustrator 22.1.0, SVG Export Plug-In . SVG Version: 6.00 Build 0)  -->
<svg version="1.1" id="Layer_1" focusable="false" xmlns="http://www.w3.org/2000/svg" xmlns:xlink="http://www.w3.org/1999/xlink"
	 x="0px" y="0px" viewBox="0 0 576 576" style="enable-background:new 0 0 576 576;" xml:space="preserve">
<g>
	<g>
		<g>
			<g>
				<path d="M471.4,360.7v27.8c0,7.7-6.2,13.9-13.9,13.9H346.2c-7.7,0-13.9-6.2-13.9-13.9v-27.8c0-7.7,6.2-13.9,13.9-13.9h17
					L343,291.1H210.3L190,346.7h17c7.7,0,13.9,6.2,13.9,13.9v27.8c0,7.7-6.2,13.9-13.9,13.9H95.7c-7.7,0-13.9-6.2-13.9-13.9v-27.8
					c0-7.7,6.2-13.9,13.9-13.9h20.4L229.8,31.6c3.5-10.4,15.3-18.9,26.3-18.9h0h41h0c11,0,22.8,8.5,26.3,18.9l113.7,315.1h20.4
					C465.2,346.7,471.4,353,471.4,360.7z M317.6,221.5l-41-112.6l-41,112.6H317.6z"/>
			</g>
		</g>
	</g>
</g>
<g>
	<path d="M89.1,420h54.6l21.1,83.5l20.9-83.5h54.6v137.2h-34V452.6l-26.2,104.6h-30.8l-26.2-104.6v104.6h-34V420z"/>
	<path d="M268.5,420h41.6v137.2h-41.6V420z"/>
	<path d="M340.2,420H379l50.6,75.9V420h39.2v137.2h-39.2l-50.3-75.3v75.3h-39.1V420z"/>
</g>
</svg>
