<?xml version="1.0" encoding="utf-8"?>
<!-- Generator: Adobe Illustrator 22.1.0, SVG Export Plug-In . SVG Version: 6.00 Build 0)  -->
<svg version="1.1" id="Layer_1" focusable="false" xmlns="http://www.w3.org/2000/svg" xmlns:xlink="http://www.w3.org/1999/xlink"
	 x="0px" y="0px" viewBox="0 0 576 576" style="enable-background:new 0 0 576 576;" xml:space="preserve">
<g>
	<g>
		<path d="M167.6,529l48.5-111.5h12.4v129.3h-13.8v-96l-42.1,96h-10.3l-42.5-95.3l0.4,95.3h-13.9V417.5h12.4L167.6,529z"/>
		<path d="M304.8,546.7h-14.9V417.5h14.9V546.7z"/>
		<path d="M455.5,521.6V417.5h14.2v129.3h-11.3L380,443v103.8h-13.8V417.5h11.3L455.5,521.6z"/>
	</g>
	<g>
		<path d="M461.1,350.6v25.3c0,7-5.7,12.6-12.6,12.6H347.4c-7,0-12.6-5.7-12.6-12.6v-25.3c0-7,5.7-12.6,12.6-12.6h15.5l-18.4-50.5
			H224L205.6,338h15.5c7,0,12.6,5.7,12.6,12.6v25.3c0,7-5.7,12.6-12.6,12.6H120c-7,0-12.6-5.7-12.6-12.6v-25.3
			c0-7,5.7-12.6,12.6-12.6h18.5L241.7,51.9c3.2-9.5,13.9-17.1,23.9-17.1l0,0h37.2l0,0c10,0,20.7,7.7,23.9,17.1L430,338h18.5
			C455.5,338,461.1,343.6,461.1,350.6z M321.5,224.3L284.2,122L247,224.2h74.5V224.3z"/>
	</g>
</g>
</svg>
