<?xml version="1.0" encoding="utf-8"?>
<!-- Generator: Adobe Illustrator 22.1.0, SVG Export Plug-In . SVG Version: 6.00 Build 0)  -->
<svg version="1.1" id="Layer_1" xmlns="http://www.w3.org/2000/svg" xmlns:xlink="http://www.w3.org/1999/xlink" x="0px" y="0px"
	 viewBox="0 0 16 15.8" style="enable-background:new 0 0 16 15.8;" xml:space="preserve">
<style type="text/css">
	.st0{fill:#231F20;}
</style>
<g>
	
		<rect x="9.8" y="3.9" transform="matrix(-1.063818e-10 1 -1 -1.063818e-10 18.0291 -3.1207)" class="st0" width="1.6" height="7.1"/>
	
		<rect x="10.8" y="-2.9" transform="matrix(-1.133193e-10 1 -1 -1.133193e-10 13.1616 -9.9403)" class="st0" width="1.6" height="9.1"/>
	
		<rect x="10.5" y="0.2" transform="matrix(-1.214142e-10 1 -1 -1.214142e-10 15.8398 -6.7749)" class="st0" width="1.6" height="8.6"/>
	<path class="st0" d="M15.7,15H6.9V9.8h8.8V15z M8.4,13.5h6v-2.3h-6V13.5z"/>
	<polygon class="st0" points="6.5,12.4 3.4,9.8 3.4,11.7 -0.1,11.7 -0.1,13.1 3.4,13.1 3.4,15 	"/>
</g>
</svg>
