<?xml version="1.0" encoding="utf-8"?>
<!-- Generator: Adobe Illustrator 22.1.0, SVG Export Plug-In . SVG Version: 6.00 Build 0)  -->
<svg version="1.1" id="Layer_1" xmlns="http://www.w3.org/2000/svg" xmlns:xlink="http://www.w3.org/1999/xlink" x="0px" y="0px"
	 viewBox="0 0 18 18" style="enable-background:new 0 0 18 18;" xml:space="preserve">
<style type="text/css">
	.st0{fill:#231F20;}
</style>
<g>
	<polygon class="st0" points="6.8,4 3.9,6.5 3.9,4.6 0.1,4.6 0.1,3.4 3.9,3.4 3.9,1.5 	"/>
	
		<rect x="10.9" y="5.7" transform="matrix(-5.656802e-11 -1 1 -5.656802e-11 1.8408 21.3182)" class="st0" width="1.3" height="8.2"/>
	
		<rect x="12.1" y="10.8" transform="matrix(-7.240069e-11 -1 1 -7.240069e-11 -3.2974 28.6985)" class="st0" width="1.3" height="10.4"/>
	
		<rect x="11.8" y="7.8" transform="matrix(-8.091832e-11 -1 1 -8.091832e-11 -0.3006 25.1421)" class="st0" width="1.3" height="9.9"/>
	<path class="st0" d="M17.3,6.8H7.6V1.4h9.6V6.8z M8.8,5.7h7.4V2.5H8.8V5.7z"/>
</g>
</svg>
