<?xml version="1.0" encoding="utf-8"?>
<!-- Generator: Adobe Illustrator 22.1.0, SVG Export Plug-In . SVG Version: 6.00 Build 0)  -->
<svg version="1.1" id="Layer_1" xmlns="http://www.w3.org/2000/svg" xmlns:xlink="http://www.w3.org/1999/xlink" x="0px" y="0px"
	 viewBox="0 0 18 18" style="enable-background:new 0 0 18 18;" xml:space="preserve">
<style type="text/css">
	.st0{fill:#231F20;}
</style>
<g>
	<polygon class="st0" points="4.2,10.5 6.6,10.5 3.7,7.1 0.8,10.5 3.1,10.5 3.1,14.2 0.8,14.2 3.7,17.6 6.6,14.2 4.2,14.2 	"/>
	<path class="st0" d="M15.4,7.5l-3-7.1h-1.3l-3,7.1H6.3v1h11v-1H15.4z M11.5,1.9l0.5,0l0.9,2.5h-2.3L11.5,1.9z M10.3,5.4h2.9l0.7,2
		H9.6L10.3,5.4z"/>
	<path class="st0" d="M15.4,16.4l-3-7.1h-1.3l-3,7.1H6.3v1h11v-1H15.4z M11.5,10.9l0.5,0l0.9,2.5h-2.3L11.5,10.9z M10.3,14.4h2.9
		l0.7,2H9.6L10.3,14.4z"/>
</g>
</svg>
