<?xml version="1.0" encoding="utf-8"?>
<!-- Generator: Adobe Illustrator 22.1.0, SVG Export Plug-In . SVG Version: 6.00 Build 0)  -->
<svg version="1.1" id="Layer_1" xmlns="http://www.w3.org/2000/svg" xmlns:xlink="http://www.w3.org/1999/xlink" x="0px" y="0px"
	 viewBox="0 0 16 15.8" style="enable-background:new 0 0 16 15.8;" xml:space="preserve">
<style type="text/css">
	.st0{fill:#231F20;}
</style>
<g>
	<rect x="10" y="4.9" transform="matrix(-1.072359e-10 -1 1 -1.072359e-10 2.4049 19.0702)" class="st0" width="1.5" height="6.9"/>
	
		<rect x="10.9" y="9.6" transform="matrix(-1.131929e-10 -1 1 -1.131929e-10 -2.3188 25.6884)" class="st0" width="1.5" height="8.8"/>
	<rect x="10.7" y="7" transform="matrix(-1.203428e-10 -1 1 -1.203428e-10 0.2803 22.6165)" class="st0" width="1.5" height="8.3"/>
	<path class="st0" d="M15.8,6.1H7.2V1h8.6V6.1z M8.6,4.7h5.8V2.4H8.6V4.7z"/>
	<polygon class="st0" points="6.7,3.5 3.8,1 3.8,2.9 -0.1,2.9 -0.1,4.2 3.8,4.2 3.8,6.1 	"/>
</g>
</svg>
